<svg width="327" height="178" viewBox="0 0 327 178" fill="none" xmlns="http://www.w3.org/2000/svg">
<mask id="mask0_1_332" style="mask-type:alpha" maskUnits="userSpaceOnUse" x="0" y="0" width="327" height="178">
<rect width="327" height="178" rx="16" fill="#D9D9D9"/>
</mask>
<g mask="url(#mask0_1_332)">
<path d="M-5.09021 188.025L329.305 191.279C329.305 191.279 331.172 126.232 335.681 -11.2708H-5.09021V188.025Z" fill="#EDF4FF"/>
<g filter="url(#filter0_f_1_332)">
<path d="M48.45 -5.52227C48.0553 -36.5496 81.0901 -76.5918 81.0901 -76.5918H-81.0903V95.5297C-81.0903 95.5297 76.5233 125.722 74.9701 57.774C74.3493 30.6136 48.7956 21.644 48.45 -5.52227Z" fill="#C8DEFF"/>
</g>
<g filter="url(#filter1_f_1_332)">
<path d="M334.134 212.23C352.568 235.898 350.475 289.671 350.475 289.671L475.613 177.358L375.044 44.549C375.044 44.549 235.789 130.403 276.688 181.756C293.037 202.283 317.995 191.508 334.134 212.23Z" fill="#003A92"/>
</g>
</g>
<defs>
<filter id="filter0_f_1_332" x="-101.09" y="-96.5918" width="202.18" height="218.806" filterUnits="userSpaceOnUse" color-interpolation-filters="sRGB">
<feFlood flood-opacity="0" result="BackgroundImageFix"/>
<feBlend mode="normal" in="SourceGraphic" in2="BackgroundImageFix" result="shape"/>
<feGaussianBlur stdDeviation="10" result="effect1_foregroundBlur_1_332"/>
</filter>
<filter id="filter1_f_1_332" x="219.168" y="-5.45099" width="306.445" height="345.122" filterUnits="userSpaceOnUse" color-interpolation-filters="sRGB">
<feFlood flood-opacity="0" result="BackgroundImageFix"/>
<feBlend mode="normal" in="SourceGraphic" in2="BackgroundImageFix" result="shape"/>
<feGaussianBlur stdDeviation="25" result="effect1_foregroundBlur_1_332"/>
</filter>
</defs>
</svg>
